<svg xmlns="http://www.w3.org/2000/svg" viewBox="0 0 64 64">
  <defs>
    <linearGradient id="g" x1="0%" y1="100%" x2="100%" y2="0%">
      <stop offset="0%" stop-color="#4721ff" />
      <stop offset="100%" stop-color="#ff6f91" />
    </linearGradient>
  </defs>
  <rect width="64" height="64" rx="14" fill="url(#g)" />
  <path d="M18 18h10.5c7.3 0 11.5 3.8 11.5 10.8 0 7.1-4.2 11-11.5 11H26v6H18V18Zm8 15.2h2.1c2.6 0 4-1.4 4-4.2s-1.4-4.1-4-4.1H26v8.3Z" fill="#fff"/>
  <path d="M36 18h8l4 9.8L52 18h8l-8.2 14.7L60 46H52l-4.1-9.3L44 46h-8l8.2-13.3L36 18Z" fill="#fff" transform="translate(-8 0)"/>
</svg>
